HIERARCHY
ROOT Bip001_Pelvis
{
  OFFSET 33.2923 95.8902 -28.781
  CHANNELS 6 Xposition Yposition Zposition Zrotation Xrotation Yrotation
  JOINT Bip001_Spine
  {
    OFFSET 1.4188e-005 10.2191 -0.0116013
    CHANNELS 3 Zrotation Xrotation Yrotation
    JOINT Bip001_L_Thigh
    {
      OFFSET 11.0458 -10.2192 0.0116197
      CHANNELS 3 Zrotation Xrotation Yrotation
      JOINT Bip001_L_Calf
      {
        OFFSET -0.707118 -44.0221 0.360014
        CHANNELS 3 Zrotation Xrotation Yrotation
        JOINT Bip001_L_Foot
        {
          OFFSET -0.651902 -40.5938 -3.56146
          CHANNELS 3 Zrotation Xrotation Yrotation
          JOINT Bip001_L_Toe0
          {
            OFFSET 0.0530839 -10.2181 13.1504
            CHANNELS 3 Zrotation Xrotation Yrotation
            End Site
            {
              OFFSET -1.02532e-005 0 7.55606
            }
          }
        }
      }
    }
    JOINT Bip001_R_Thigh
    {
      OFFSET -11.0458 -10.2191 0.0115893
      CHANNELS 3 Zrotation Xrotation Yrotation
      JOINT Bip001_R_Calf
      {
        OFFSET 0.706994 -44.0221 0.35984
        CHANNELS 3 Zrotation Xrotation Yrotation
        JOINT Bip001_R_Foot
        {
          OFFSET 0.651786 -40.5938 -3.5613
          CHANNELS 3 Zrotation Xrotation Yrotation
          JOINT Bip001_R_Toe0
          {
            OFFSET -0.0531479 -10.2181 13.1504
            CHANNELS 3 Zrotation Xrotation Yrotation
            End Site
            {
              OFFSET -1.02894e-005 0 7.55606
            }
          }
        }
      }
    }
    JOINT Bip001_Spine1
    {
      OFFSET 1.87041e-005 14.5736 1.08638
      CHANNELS 3 Zrotation Xrotation Yrotation
      JOINT Bip001_Spine2
      {
        OFFSET 2.24614e-005 14.5058 -1.69078
        CHANNELS 3 Zrotation Xrotation Yrotation
        JOINT Bip001_Neck
        {
          OFFSET 2.20278e-005 15.3945 -0.489414
          CHANNELS 3 Zrotation Xrotation Yrotation
          JOINT Bip001_L_Clavicle
          {
            OFFSET 6.06036 -0.000579998 0.00836775
            CHANNELS 3 Zrotation Xrotation Yrotation
            JOINT Bip001_L_UpperArm
            {
              OFFSET 11.5509 -0.0600302 0.00193952
              CHANNELS 3 Zrotation Xrotation Yrotation
              JOINT Bip001_L_Forearm
              {
                OFFSET 25.9523 0.0806089 -2.15551
                CHANNELS 3 Zrotation Xrotation Yrotation
                JOINT Bip001_L_Hand
                {
                  OFFSET 32.2476 0.153767 1.63968
                  CHANNELS 3 Zrotation Xrotation Yrotation
                  JOINT Bip001_L_Finger0
                  {
                    OFFSET 6.04639 -2.20976 5.90322
                    CHANNELS 3 Zrotation Xrotation Yrotation
                    End Site
                    {
                      OFFSET 4.22376 -1.43895 0.606486
                    }
                  }
                  JOINT Bip001_L_Finger1
                  {
                    OFFSET 11.0826 -0.704819 -0.198153
                    CHANNELS 3 Zrotation Xrotation Yrotation
                    End Site
                    {
                      OFFSET 6.20028 -0.397518 -0.0787166
                    }
                  }
                }
              }
            }
          }
          JOINT Bip001_R_Clavicle
          {
            OFFSET -6.06036 -0.000563197 0.00835105
            CHANNELS 3 Zrotation Xrotation Yrotation
            JOINT Bip001_R_UpperArm
            {
              OFFSET -11.5509 -0.0599978 0.00190698
              CHANNELS 3 Zrotation Xrotation Yrotation
              JOINT Bip001_R_Forearm
              {
                OFFSET -25.9523 0.080682 -2.1559
                CHANNELS 3 Zrotation Xrotation Yrotation
                JOINT Bip001_R_Hand
                {
                  OFFSET -32.2476 0.153858 1.63991
                  CHANNELS 3 Zrotation Xrotation Yrotation
                  JOINT Bip001_R_Finger0
                  {
                    OFFSET -6.04641 -2.20974 5.90321
                    CHANNELS 3 Zrotation Xrotation Yrotation
                    End Site
                    {
                      OFFSET -4.22376 -1.43894 0.606474
                    }
                  }
                  JOINT Bip001_R_Finger1
                  {
                    OFFSET -11.0826 -0.704789 -0.198184
                    CHANNELS 3 Zrotation Xrotation Yrotation
                    End Site
                    {
                      OFFSET -6.20028 -0.397501 -0.0787338
                    }
                  }
                }
              }
            }
          }
          JOINT Bip001_Head
          {
            OFFSET 1.09673e-005 11.2744 2.05948
            CHANNELS 3 Zrotation Xrotation Yrotation
            End Site
            {
              OFFSET 2.89576e-005 20.8808 -2.77728e-005
            }
          }
        }
      }
    }
  }
}
MOTION
Frames:	12
Frame Time:	0.04
32.1817 95.8691 -28.7828 1.48073 -0.793788 2.03481 -0.342844 2.54584 -0.493062 4.15873 -2.53228 7.21685 -0.142519 5.64563 -12.7896 4.47098 -0.564695 -0.20627 -3.19213 -4.7972 5.12695 -3.90283 -4.0081 -0.904673 0.666395 12.2848 -0.237489 -5.7875 -10.7087 1.73467 1.9045 -6.81314 2.36872 -0.664202 5.09442 -0.974842 -0.664519 5.09443 -0.975359 -4.28336 1.05774 -1.01132 -18.9659 1.02973 -3.86333 -51.4336 39.8018 -1.52915 12.6008 0.348142 -24.7375 7.96588 1.10456 -1.98302 6.36111e-015 6.36111e-015 -3.18055e-015 6.36111e-015 3.18056e-015 -4.77083e-015 30.142 8.08018 23.854 48.9483 -30.3856 5.8597 -34.2625 -4.90378 109.04 -38.0051 7.03812 5.45355 3.18055e-015 7.95139e-015 -3.18055e-015 3.18055e-015 1.59028e-015 -4.77083e-015 7.50782 11.7513 -4.64811 
32.2338 95.8736 -28.6702 1.74932 -1.00533 2.02616 -0.408301 2.55923 -0.431871 3.85179 -1.99276 7.6048 -0.0206582 5.10105 -13.2319 4.31491 -0.455251 -0.205733 -3.2163 -4.70919 5.15812 -4.18685 -3.82894 -1.33058 0.654975 12.5257 -0.186091 -5.71401 -10.9592 2.01039 1.90912 -6.83712 2.38179 -0.790031 5.12134 -0.846381 -0.788545 5.12136 -0.846684 -4.07847 1.28603 -1.08077 -19.2184 0.767576 -3.79065 -51.4423 39.7753 -1.46307 12.6363 0.408205 -24.7738 7.95512 1.10802 -2.0763 3.18055e-015 0 -4.77083e-015 3.18055e-015 0 -3.18055e-015 29.3405 8.0237 24.8414 52.0506 -33.8416 11.355 -35.1758 -4.83487 113.677 -45.3915 6.86305 5.01236 -3.18055e-015 6.36111e-015 4.77083e-015 -8.82782e-032 3.18056e-015 1.59028e-015 7.41556 11.5343 -4.6178 
32.1626 95.8692 -28.6133 1.61893 -0.982234 2.05167 -0.403975 2.55662 -0.386352 4.05261 -2.05732 7.97716 -0.0221306 5.26007 -13.7028 4.35226 -0.561071 -0.203672 -3.25097 -4.71517 5.1819 -3.95907 -3.71136 -1.35581 0.570399 12.3256 -0.236871 -5.72189 -10.8744 2.01602 1.91416 -6.87151 2.39459 -0.790476 5.12062 -0.755913 -0.789931 5.12061 -0.755838 -3.89718 1.21259 -1.12283 -19.2564 0.745001 -3.50527 -51.5584 39.7315 -1.58274 12.6938 0.559995 -24.7346 7.96938 1.00795 -2.05617 -6.36111e-015 -6.36111e-015 1.59028e-015 -6.36111e-015 -6.36111e-015 1.59028e-015 28.0976 8.09563 25.7526 56.1774 -35.7795 17.4384 -36.9178 -4.32981 116.478 -51.2027 7.33096 4.65922 -1.59028e-015 0 3.97569e-015 -3.18055e-015 0 4.77083e-015 7.31436 11.5182 -4.568 
32.0781 95.8666 -28.615 1.4372 -0.893275 2.43605 -0.3706 2.54064 -0.401766 4.34271 -2.41969 7.62848 -0.131542 5.71145 -13.7131 4.40638 -0.691043 -0.19744 -3.20602 -4.76162 5.16122 -3.69715 -3.60624 -1.70472 0.450989 12.0761 -0.295623 -5.73131 -10.7896 2.01021 1.92305 -6.89528 2.44016 -0.724977 5.08375 -0.788249 -0.724705 5.08377 -0.788212 -3.58687 1.21889 -1.29529 -19.5199 0.632082 -3.20565 -51.6669 39.6551 -1.63741 12.6695 0.641739 -24.7053 8.0229 0.985272 -2.02314 -6.36111e-015 3.18055e-015 -0 -6.36111e-015 6.36111e-015 -1.59028e-015 26.7575 8.13953 26.7822 59.274 -35.6599 22.6683 -38.2229 -4.2597 116.73 -53.4434 7.23626 5.02449 -1.59028e-015 -6.36111e-015 -2.38542e-015 -4.41391e-031 -6.36111e-015 -3.97569e-015 6.95572 11.5624 -4.53323 
31.9077 95.8806 -28.7359 0.913826 -0.491547 3.23643 -0.26759 2.45775 -0.487669 5.09931 -3.46382 6.60147 -0.46236 6.73822 -13.1788 4.0195 -1.35678 -0.154646 -3.38238 -4.44762 5.27912 -3.05609 -3.56468 -1.9175 0.314678 11.3646 -0.455237 -5.78917 -10.3402 1.72693 1.93297 -6.93353 2.44836 -0.515398 4.91766 -0.96518 -0.514919 4.91767 -0.965167 -3.23977 1.31224 -1.52323 -19.9933 0.421588 -2.87651 -51.6775 39.8506 -1.54951 12.6425 0.407521 -24.7788 8.13398 1.0122 -1.94694 -1.76556e-031 -3.18055e-015 -3.18055e-015 3.18055e-015 0 -3.18055e-015 25.487 8.1903 28.0589 60.1466 -34.1974 25.6837 -40.1531 -3.76514 115.392 -55.4291 7.03468 4.69123 1.59028e-015 -6.36111e-015 -3.97569e-016 2.38542e-015 -3.18056e-015 7.95139e-016 6.5371 11.5747 -4.51894 
31.883 95.8885 -28.6375 1.07179 -0.670902 3.2038 -0.305713 2.50945 -0.404401 4.97584 -3.01251 7.215 -0.408399 6.22116 -13.8846 4.04541 -1.11608 -0.165068 -3.35775 -4.49996 5.25415 -3.10249 -3.43492 -2.00072 0.214129 11.5016 -0.402496 -5.79499 -10.4228 1.71061 1.93884 -6.93894 2.42385 -0.593593 5.02095 -0.796509 -0.594545 5.02096 -0.796537 -2.70698 1.2215 -1.84529 -20.5784 0.369667 -2.50501 -51.2984 39.6173 -1.72521 12.1941 0.68858 -24.9473 8.4441 1.0443 -1.89317 0 0 -0 -3.18055e-015 0 1.59028e-015 24.0513 8.42971 29.3677 60.1831 -32.0304 27.8841 -41.1131 -2.68588 111.826 -55.8046 5.59902 5.38615 1.59028e-015 3.18055e-015 2.38542e-015 2.38542e-015 6.36111e-015 7.95139e-016 5.92004 11.6629 -4.47411 
31.7878 95.8888 -28.6449 0.779118 -0.616425 3.53373 -0.261194 2.50964 -0.382478 5.38016 -3.39205 6.941 -0.559416 6.72657 -13.9429 4.24863 -1.20334 -0.170474 -3.28452 -4.57581 5.20227 -2.70809 -3.27315 -2.17936 0.0825622 11.0992 -0.398242 -5.82972 -10.1968 1.54729 1.94438 -6.95742 2.45312 -0.507247 5.02088 -0.757784 -0.506919 5.02089 -0.756137 -2.1492 1.4194 -2.24932 -21.205 0.0360124 -2.23836 -50.6567 38.8246 -2.09848 11.4533 1.64567 -25.1084 8.7802 0.930657 -1.86672 -6.36111e-015 1.27222e-014 -4.77083e-015 7.94503e-031 9.54167e-015 -4.77083e-015 22.6967 8.48604 30.9915 57.4983 -28.6944 28.4808 -40.5629 -1.95131 105.871 -55.6572 4.82804 6.12693 2.64834e-031 -3.18055e-015 4.77083e-015 -0 0 5.56597e-015 5.30125 11.4858 -4.49751 
31.6794 95.8936 -28.6556 0.442004 -0.474342 3.74147 -0.198467 2.51074 -0.340163 5.86781 -3.85413 6.76695 -0.744308 7.26816 -13.8609 3.93664 -1.69859 -0.136432 -3.40329 -4.33994 5.29902 -2.29092 -3.21324 -2.23116 -0.0183895 10.6625 -0.397422 -5.86361 -9.91115 1.3871 1.94467 -6.97103 2.44362 -0.382488 5.0226 -0.672381 -0.382509 5.02261 -0.672485 -1.61199 1.43302 -2.66125 -21.7935 -0.130024 -1.92288 -50.4921 38.712 -2.20508 11.3013 1.48007 -25.1466 8.89067 0.962814 -1.76113 -6.36111e-015 -3.18055e-015 1.59028e-015 -3.18055e-015 -3.18056e-015 -1.59028e-015 21.2727 8.56968 32.2925 51.5246 -22.4416 27.6141 -41.5777 -3.04636 96.3558 -53.5471 2.72182 6.03336 3.18055e-015 -3.18055e-015 -0 4.77083e-015 0 1.59028e-015 4.62688 11.4823 -4.51959 
31.6055 95.9009 -28.6623 0.271481 -0.380675 3.8378 -0.150214 2.52562 -0.268368 6.08381 -4.0993 6.62405 -0.856185 7.46698 -13.8888 4.1339 -1.65517 -0.138597 -3.35451 -4.41552 5.2521 -2.06146 -3.21401 -2.14228 -0.0835086 10.4128 -0.442057 -5.92013 -9.73747 1.17383 1.94678 -6.99095 2.44668 -0.288995 5.05192 -0.530881 -0.288995 5.05192 -0.530882 -1.28109 1.24373 -3.03758 -22.2926 -0.0689143 -1.63875 -50.3189 38.7213 -2.27417 11.2772 1.48653 -25.1525 9.08346 1.00221 -1.75314 0 3.18055e-015 -0 3.18055e-015 6.36111e-015 -0 20.2975 8.77327 33.0536 57.6855 -24.1167 34.6317 -35.8801 -7.05793 86.2338 -40.9246 -4.3619 12.4058 -3.18055e-015 -3.18055e-015 -3.18055e-015 -3.18055e-015 0 -4.77083e-015 3.93194 11.6617 -4.56391 
31.568 95.9022 -28.6506 0.13626 -0.377386 3.95419 -0.136134 2.54738 -0.249715 6.28691 -4.25077 6.61471 -0.914665 7.68679 -13.9681 3.9779 -1.8735 -0.130203 -3.40452 -4.3194 5.30638 -1.86964 -3.15126 -2.1433 -0.133668 10.248 -0.4313 -5.95038 -9.61727 1.03988 1.9473 -6.97965 2.44935 -0.261532 5.09534 -0.494101 -0.261532 5.09534 -0.494103 -0.758087 1.139 -3.3679 -22.4061 -0.136804 -1.27156 -50.6953 38.6505 -2.21949 11.3543 1.70468 -25.1775 9.10648 0.977647 -1.81 -1.76556e-031 3.18055e-015 3.18055e-015 -3.53113e-031 6.36111e-015 3.18055e-015 20.3732 8.9833 32.4908 61.8249 -26.6705 36.4456 -36.0809 -4.42308 85.2571 -45.4671 -4.52237 10.916 -3.18055e-015 3.18055e-015 4.77083e-015 -3.53113e-031 3.18056e-015 6.36111e-015 3.06891 11.7961 -4.45238 
31.6088 95.907 -28.6706 0.256624 -0.281913 3.95289 -0.157308 2.51757 -0.331881 6.13004 -4.20009 6.72701 -0.855233 7.45386 -13.9549 3.80219 -1.83841 -0.124211 -3.39917 -4.25552 5.31133 -2.02687 -3.30938 -2.11405 -0.0834749 10.4221 -0.433705 -5.9382 -9.68054 1.05489 1.94832 -6.98887 2.45184 -0.297069 5.03604 -0.654332 -0.296994 5.03604 -0.656304 -0.926414 1.39954 -3.23115 -22.1879 -0.286692 -1.61436 -51.2652 37.8661 -1.43219 11.2818 2.04746 -25.2748 9.19471 0.925547 -1.83693 -3.18055e-015 6.36111e-015 -0 -3.18055e-015 6.36111e-015 -0 21.0389 8.47301 31.0278 60.1906 -25.5938 34.1441 -37.3433 -8.43764 83.7494 -41.3059 -0.483589 8.56841 0 9.54166e-015 -0 -3.18055e-015 9.54167e-015 1.59028e-015 3.24761 11.9624 -4.43608 
31.9476 95.923 -28.5331 1.07861 -0.653642 3.05221 -0.307222 2.59327 -0.314907 4.90059 -2.91987 7.6668 -0.291387 6.01588 -14.2807 3.72998 -1.2017 -0.148163 -3.45039 -4.36153 5.32615 -3.11272 -3.48427 -2.13068 0.120069 11.4345 -0.419887 -5.67755 -10.2975 1.81098 1.93783 -6.94839 2.44898 -0.600357 5.1882 -0.621849 -0.601738 5.18824 -0.619308 -1.80297 1.35939 -2.73608 -21.5302 -0.067038 -1.87376 -51.5459 38.2173 -0.857892 11.2126 1.65125 -25.283 8.86584 0.854252 -1.69164 -3.18055e-015 -3.18055e-015 -1.59028e-015 -2.64834e-031 -3.18056e-015 -4.77083e-015 22.3498 8.39153 30.2725 56.6934 -24.0899 32.2969 -39.5306 -12.621 78.6231 -37.0761 3.79114 7.62023 -6.62086e-032 -1.59028e-015 -2.38542e-015 -8.82782e-032 -6.36111e-015 -7.95139e-016 3.81949 12.1809 -4.40965 
